/* XPM */
static char *_a271b376cc247feb74a999695893a2f[] = {
/* columns rows colors chars-per-pixel */
"32 32 106 2 ",
"   c #042C7C",
".  c #04327E",
"X  c #0E337F",
"o  c #063B7C",
"O  c #10367D",
"+  c #173F7D",
"@  c #084D7B",
"#  c #11437F",
"$  c #032F83",
"%  c #092D87",
"&  c #042F8B",
"*  c #082F88",
"=  c #043385",
"-  c #083084",
";  c #033C85",
":  c #093D84",
">  c #053689",
",  c #043C8B",
"<  c #083F8A",
"1  c #123681",
"2  c #014485",
"3  c #034A87",
"4  c #084F85",
"5  c #03448C",
"6  c #034C8D",
"7  c #0E4F8E",
"8  c #144C88",
"9  c #1D4888",
"0  c #04528D",
"q  c #0E528F",
"w  c #075A8E",
"e  c #1C528C",
"r  c #034491",
"t  c #034C92",
"y  c #084892",
"u  c #025494",
"i  c #085397",
"p  c #025A96",
"a  c #015499",
"s  c #015C9A",
"d  c #1B5793",
"f  c #1D5E94",
"g  c #24478B",
"h  c #2C578D",
"j  c #325589",
"k  c #2D5595",
"l  c #2B5A90",
"z  c #3D5592",
"x  c #01609B",
"c  c #156299",
"v  c #27669D",
"b  c #26699A",
"n  c #2E6E9E",
"m  c #326493",
"M  c #316E95",
"N  c #3D6B9D",
"B  c #32719E",
"V  c #005CA2",
"C  c #0161A0",
"Z  c #376EA1",
"A  c #546994",
"S  c #466AA2",
"D  c #506DA1",
"F  c #4671A2",
"G  c #487AA7",
"H  c #5D72A7",
"J  c #537AA1",
"K  c #5D7DAB",
"L  c #4788AE",
"P  c #5D81A8",
"I  c #5F90AC",
"U  c #5C92B1",
"Y  c #5F99B9",
"T  c #6284A8",
"R  c #608BAF",
"E  c #6495AF",
"W  c #6184B2",
"Q  c #628FB3",
"!  c #6C8AB2",
"~  c #7084B0",
"^  c #6294B3",
"/  c #6E90B1",
"(  c #6F9DBC",
")  c #7994B7",
"_  c #71A2BB",
"`  c #7BA1BE",
"'  c #71A2C2",
"]  c #899DBD",
"[  c #80A1B9",
"{  c #8193C0",
"}  c #89A5C3",
"|  c #8CACCB",
" . c #83B0CA",
".. c #93B5CA",
"X. c #91BDCF",
"o. c #9CBCD7",
"O. c #A2C7D8",
"+. c #ACC7D8",
"@. c #ABC9DC",
"#. c #B0C7DA",
"$. c #B6D7DF",
"%. c #CADFEE",
"&. c #D4EAF6",
"*. c #DDEFF5",
"=. c #E2F3F9",
"-. c None",
/* pixels */
"-.-.-.-.-.-.-.-.-.-.-.-.-.-.-.-.-.-.-.-.-.-.-.-.-.-.-.-.-.-.-.-.",
"-.-.-.-.-.-.-.-.-.-.-.-.-.-.-.-.-.-.-.-.-.-.-.-.-.-.-.-.-.-.-.-.",
"-.-.-.-.-.-.-.-.-.-.-.-.-.-.-.-.-.-.-.-.-.-.-.-.-.-.-.-.-.-.-.-.",
"-.-.-.-.-.-.-.-.-.-.-.-.=.N ; 5 2 G -.-.-.-.-.-.-.-.-.-.-.-.-.-.",
"-.-.-.-.-.-.-.-.-.-.; k > e r y 6 6 t a 0 -.-.-.-.-.-.-.-.-.-.-.",
"-.-.-.-.-.-.-.-.= , , -.r r W | 5 t m -.-.3 @ -.-.-.-.-.-.-.-.-.",
"-.-.-.-.-.-.-.; ; , , S 5 r r -.} -.t a u t -.u -.-.-.-.-.-.-.-.",
"-.-.-.-.-.-.j ) ; , , , 5 / r 6 6 t t t -.-.t p p -.-.^ O.-.-.-.",
"-.-.-.-.-.> > > + : ; 5 K 5 r 5 t t t 6 -.u u s p x n -.-.-.-.-.",
"-.-.-.-.O * > > ; ; -.8 5 5 r 6 t y d t 0 a u E p -.-.-.-.$.-.-.",
"-.-.-.-.& . > > = 9 , , 5 -.e y q -.6 a a u u -.-.-.-.-.x -.-.-.",
"-.-.-.1 - -.; -., , , 5 5 l -.-.-.5 t u u ( -.-.-.-. .x -.-.-.-.",
"-.-.-.- $ -.K -.-.o , 5 r 5 y 6 o 0 2 -.-.-.-.-.E p p V -.-.-.-.",
"-.-.-.- = ! = ; D -.-.-.T 5 5 y 5 J -.-.-.-.-.s -.-.x x -.-.-.-.",
"-.-.-.  -.> $ -.-.-.M _ -.-.e 3 &.-.-.-.-.0 u u -.c s x -.-.-.-.",
"-.-.{   - - -.o.t 6 s s s L -.-.-.-.-.7 u u u 0 b U s x -.-.-.-.",
"-.-.~ z - -.-.r t -.3 u p x X.-.-.' y y t i u -.p s -.x -.-.-.-.",
"-.-.-.* = -.5 r 6 -.3 p p s p -.5 6 t -.t a +.p s t p Y -.-.-.-.",
"-.-.-.* 1 -.< 5 6 -.3 t u u p -.| y t a u f u p s w s C -.-.-.-.",
"-.-.-.= g -.; 5 5 -.5 t t u p -.-.t t 2 -.u u p p -.-.s -.-.-.-.",
"-.-.-.* & -., , , -.m Z Z i u -.8 t t t -.a u a V -.x x -.-.-.-.",
"-.-.-.* -.-.A & , -.-.-.-.b 4 -.6 y t u u 6 u p p s s -.-.-.-.-.",
"-.-.] -.-.-.-.$ > : 5 5 r y -.} 6 t t t u -.a u p s ^ -.-.-.-.-.",
"-.-.-.-.-.H ) -.*.- , , -.-.-.r y t t 0 t t u s -.0 -.-.-.-.-.-.",
"-.-.-.-.= = = = -.-.-.-.-.o r 6 6 t t t 0 ..-.u s ' -.-.-.-.-.-.",
"-.-.&.-.-.-.. ; , > -.+ ; 5 5 %.-.R -.5 u t 0 p B -.-.-.-.-.-.-.",
"-.-.-.-.-.-.-.H , , -.l 5 5 5 -.@.F -.t i u t [ -.-.-.-.-.-.-.-.",
"-.-.-.-.-.-.-.-.-., ; , r , #.r 6 y t t u Q -.-.-.-.-.-.-.-.-.-.",
"-.-.-.-.-.-.-.-.-.-.-.. l K r 6 r t t q -.-.-.-.-.-.-.-.-.-.-.-.",
"-.-.-.-.-.-.-.-.-.-.-.-.-.-.-.-.-.-.-.-.-.-.-.-.-.-.-.-.-.-.-.-.",
"-.-.-.-.-.-.-.-.-.-.-.-.-.-.-.-.-.-.-.-.-.-.-.-.-.-.-.-.-.-.-.-.",
"-.-.-.-.-.-.-.-.-.-.-.-.-.-.-.-.-.-.-.-.-.-.-.-.-.-.-.-.-.-.-.-."
};
