/* XPM */
static char *b232aba285c846f8ea4999e9d40735f6[] = {
/* columns rows colors chars-per-pixel */
"16 16 106 2 ",
"   c #042E7D",
".  c #00357E",
"X  c #003A7F",
"o  c #032D80",
"O  c #082C85",
"+  c #063282",
"@  c #023487",
"#  c #043585",
"$  c #053786",
"%  c #023884",
"&  c #043F86",
"*  c #053388",
"=  c #02368B",
"-  c #04378A",
";  c #053A88",
":  c #063B8A",
">  c #003E8B",
",  c #023E8A",
"<  c #043C89",
"1  c #053D8A",
"2  c #053E8B",
"3  c #063E8B",
"4  c #06388C",
"5  c #043B8E",
"6  c #1B3781",
"7  c #014185",
"8  c #024285",
"9  c #044E81",
"0  c #004985",
"q  c #05428A",
"w  c #00448B",
"e  c #00458B",
"r  c #064488",
"t  c #06458A",
"y  c #00428E",
"u  c #01438F",
"i  c #04438C",
"p  c #04428D",
"a  c #07438D",
"s  c #07408F",
"d  c #03478E",
"f  c #02488D",
"g  c #03498F",
"h  c #014B8F",
"j  c #024390",
"k  c #034392",
"l  c #014692",
"z  c #014A91",
"x  c #034B90",
"c  c #024B92",
"v  c #044891",
"b  c #024C90",
"n  c #024C93",
"m  c #024E92",
"M  c #034E92",
"N  c #024F93",
"B  c #005391",
"V  c #045093",
"C  c #055292",
"Z  c #045392",
"A  c #015793",
"S  c #035793",
"D  c #055491",
"F  c #015295",
"G  c #035295",
"H  c #035296",
"J  c #005494",
"K  c #025596",
"L  c #025597",
"P  c #005696",
"I  c #065596",
"U  c #075A91",
"Y  c #025A95",
"T  c #005A96",
"R  c #015E94",
"E  c #005E95",
"W  c #00539B",
"Q  c #005899",
"!  c #015A98",
"~  c #005A9B",
"^  c #025D99",
"/  c #005F99",
"(  c #234182",
")  c #234D89",
"_  c #29588E",
"`  c #186086",
"'  c #266A9A",
"]  c #32709C",
"[  c #3C749E",
"{  c #3F79A1",
"}  c #4470A2",
"|  c #5187AC",
" . c #7993B4",
".. c #769ABA",
"X. c #7AA8C1",
"o. c #88A6BE",
"O. c #879DC2",
"+. c #98B3CE",
"@. c #B8C3CE",
"#. c #AAC7D8",
"$. c #B5CFDE",
"%. c #C1DEE5",
"&. c #C8DFEF",
"*. c #D8E4EF",
"=. c #E0EDF4",
"-. c None",
/* pixels */
"-.-.-.-.-.-.-.-.-.-.-.-.-.-.-.-.",
"-.-.-.-.-.-.-.-.-.-.-.-.-.-.-.-.",
"-.-.-.-. .3 j t x n 0 -.-.-.-.-.",
"-.-.-.  3 } q X n -.I B -.-.` -.",
"-.-.@ - : -.i l x N W ' ^ -.-.-.",
"-.-.* = 5 3 j +.o.N Z -.-.X.-.-.",
"-.6 -.% , . y d -.$.-.-.S E -.-.",
"-.O + -.Z ! %._ -.-.Z L -./ -.-.",
"-.-.O.t -.F Y -.d ..J -.-.#.-.-.",
"-.o -.3 -.x L ! f n ] D 9 U -.-.",
"-.-.=.$ -.-.-.&.x n -.L Y E -.-.",
"-.-.-.-.4 3 q -.f n L L B -.-.-.",
"-.( *.$ ) -.i s x e | ^ } -.-.-.",
"-.-.-.-.: , i -.x 0 [ -.-.-.-.-.",
"-.-.-.-.-.-.@.y & -.-.-.-.-.-.-.",
"-.-.-.-.-.-.-.-.-.-.-.-.-.-.-.-."
};
