/* XPM */
static char *ea80a1cb92a14ba7bc73a221ce1430a0[] = {
/* columns rows colors chars-per-pixel */
"64 64 250 2 ",
"   c #002475",
".  c #022C76",
"X  c #082D76",
"o  c #042679",
"O  c #042C7C",
"+  c #0B2D7C",
"@  c #03347D",
"#  c #0C327C",
"$  c #10347E",
"%  c #1E3879",
"&  c #004C7F",
"*  c #294070",
"=  c #052D84",
"-  c #092F84",
";  c #052F88",
":  c #092E8B",
">  c #102C86",
",  c #043385",
"<  c #093285",
"1  c #033B85",
"2  c #0B3C85",
"3  c #043589",
"4  c #09358C",
"5  c #043B8A",
"6  c #083A8C",
"7  c #193783",
"8  c #163E86",
"9  c #1A3E84",
"0  c #023E92",
"q  c #024386",
"w  c #0B4183",
"e  c #034B84",
"r  c #03448D",
"t  c #034B8D",
"y  c #0A4D8B",
"u  c #164783",
"i  c #1F4380",
"p  c #134D87",
"a  c #1C4C84",
"s  c #124488",
"d  c #134C8B",
"f  c #1A4C8E",
"g  c #03528D",
"h  c #0A538C",
"j  c #00598E",
"k  c #1B5286",
"l  c #1E508A",
"z  c #175A8D",
"x  c #034591",
"c  c #034C92",
"v  c #084F92",
"b  c #004D99",
"n  c #025494",
"m  c #0B5790",
"M  c #015B95",
"N  c #095E94",
"B  c #015499",
"V  c #015C9A",
"C  c #145192",
"Z  c #105F93",
"A  c #1C5B92",
"S  c #155D98",
"D  c #244485",
"F  c #244A84",
"G  c #2C4F86",
"H  c #204288",
"J  c #224C8C",
"K  c #314E8E",
"L  c #2A538B",
"P  c #385186",
"I  c #31528C",
"U  c #355E8D",
"Y  c #215391",
"T  c #2C5590",
"R  c #265D93",
"E  c #2C5C94",
"W  c #2A5D99",
"Q  c #355494",
"!  c #345992",
"~  c #3F5A92",
"^  c #1F6D8F",
"/  c #036096",
"(  c #0E6496",
")  c #01609B",
"_  c #166493",
"`  c #186193",
"'  c #17679A",
"]  c #196098",
"[  c #23608A",
"{  c #276797",
"}  c #2B6396",
"|  c #266A94",
" . c #2D6E95",
".. c #24659B",
"X. c #28619A",
"o. c #236C9D",
"O. c #2E6B9D",
"+. c #346393",
"@. c #3F6997",
"#. c #3C659B",
"$. c #346D9B",
"%. c #3C6C9A",
"&. c #2D769C",
"*. c #33729D",
"=. c #3F749D",
"-. c #005CA1",
";. c #0062A1",
":. c #2B6FA1",
">. c #3F69A1",
",. c #2F7AA0",
"<. c #3674A3",
"1. c #3079A5",
"2. c #3C7BA1",
"3. c #327EAD",
"4. c #455C93",
"5. c #4A6597",
"6. c #4B6D94",
"7. c #45649B",
"8. c #4D679B",
"9. c #426E9E",
"0. c #496B9E",
"q. c #4F769F",
"w. c #447B9E",
"e. c #547697",
"r. c #51719C",
"t. c #5A719F",
"y. c #436CA2",
"u. c #4C6DA4",
"i. c #566DA2",
"p. c #4474A5",
"a. c #4E75A1",
"s. c #447BA3",
"d. c #4B7AA4",
"f. c #4B7BA8",
"g. c #5274A4",
"h. c #5D74A5",
"j. c #537FA0",
"k. c #5A7DA7",
"l. c #5475A8",
"z. c #5D73A8",
"x. c #547CA9",
"c. c #5B79A9",
"v. c #667BA4",
"b. c #657AA8",
"n. c #3A80A8",
"m. c #4D82A6",
"M. c #4681AA",
"N. c #4D82AB",
"B. c #4E8AAB",
"V. c #5082A2",
"C. c #5484AA",
"Z. c #5B85AE",
"A. c #528CAB",
"S. c #5A8FAF",
"D. c #5793AF",
"F. c #4C88B3",
"G. c #5D85B0",
"H. c #558BB1",
"J. c #5C8DB2",
"K. c #5D92B4",
"L. c #5F92B9",
"P. c #6385AD",
"I. c #6A83AE",
"U. c #658AAD",
"Y. c #6D89AA",
"T. c #728BAC",
"R. c #6790AE",
"E. c #7194AF",
"W. c #638EB4",
"Q. c #728BB1",
"!. c #7C8FB0",
"~. c #718CB8",
"^. c #6593B2",
"/. c #6C91B3",
"(. c #6099B5",
"). c #6393B8",
"_. c #6E93B9",
"`. c #679DB9",
"'. c #6D99BA",
"]. c #7493B4",
"[. c #7198B4",
"{. c #7C9BB5",
"}. c #7494B9",
"|. c #7997BA",
" X c #749CBB",
".X c #7B9EBE",
"XX c #6DA1BD",
"oX c #7CA5B4",
"OX c #74A5BC",
"+X c #79A1BD",
"@X c #7BA8BE",
"#X c #63A2C5",
"$X c #6DA2C2",
"%X c #74A4C2",
"&X c #79A1C0",
"*X c #7AA8C8",
"=X c #809AB5",
"-X c #839CBA",
";X c #889CBB",
":X c #83A5BE",
">X c #87A8BF",
",X c #8CADBE",
"<X c #96A0B7",
"1X c #96AEBF",
"2X c #879FC2",
"3X c #81A3C0",
"4X c #8CA3C3",
"5X c #83ADC6",
"6X c #88ABC3",
"7X c #83A9CC",
"8X c #8AAAC8",
"9X c #93AEC3",
"0X c #95AECC",
"qX c #84B2C7",
"wX c #8AB4C6",
"eX c #87B0C9",
"rX c #8BB4CD",
"tX c #9CB7CC",
"yX c #97B5D3",
"uX c #94BCD6",
"iX c #A6BDD2",
"pX c #A7BFD9",
"aX c #AABCD8",
"sX c #9BC4D8",
"dX c #AFC2D5",
"fX c #A3C9DB",
"gX c #B3C4D6",
"hX c #B8C5DD",
"jX c #B8CDDD",
"kX c #B3D3E3",
"lX c #BED4E3",
"zX c #B9DDE8",
"xX c #BFE1EF",
"cX c #C1CCD1",
"vX c #C6D7E8",
"bX c #C4DBEE",
"nX c #C4D5F4",
"mX c #CCE1ED",
"MX c #DFEBED",
"NX c #C6E1F0",
"BX c #CEEAF3",
"VX c #D0ECF5",
"CX c #DBECF7",
"ZX c #D7F1F7",
"AX c #E2F3F4",
"SX c #E9F2F6",
"DX c #E4F0F9",
"FX c #EBFAFF",
"GX c #F5F9FB",
"HX c None",
/* pixels */
"HXHXHXHXHXHXHXHXHXHXHXHXHXHXHXHXHXHXHXHXHXHXHXHXHXHXHXHXHXHXHXHXHXHXHXHXHXHXHXHXHXHXHXHXHXHXHXHXHXHXHXHXHXHXHXHXHXHXHXHXHXHXHXHX",
"HXHXHXHXHXHXHXHXHXHXHXHXHXHXHXHXHXHXHXHXHXHXHXHXHXHXHXHXHXHXHXHXHXHXHXHXHXHXHXHXHXHXHXHXHXHXHXHXHXHXHXHXHXHXHXHXHXHXHXHXHXHXHXHX",
"HXHXHXHXHXHXHXHXHXHXHXHXHXHXHXHXHXHXHXHXHXHXHXHXHXHXHXHXHXHXHXHXHXHXHXHXHXHXHXHXHXHXHXHXHXHXHXHXHXHXHXHXHXHXHXHXHXHXHXHXHXHXHXHX",
"HXHXHXHXHXHXHXHXHXHXHXHXHXHXHXHXHXHXHXHXHXHXHXHXHXHXHXHXHXHXHXHXHXHXHXHXHXHXHXHXHXHXHXHXHXHXHXHXHXHXHXHXHXHXHXHXHXHXHXHXHXHXHXHX",
"HXHXHXHXHXHXHXHXHXHXHXHXHXHXHXHXHXHXHXHXHXHXHXHXHXHXHXHXHXHXHXHXHXHXHXHXHXHXHXHXHXHXHXHXHXHXHXHXHXHXHXHXHXHXHXHXHXHXHXHXHXHXHXHX",
"HXHXHXHXHXHXHXHXHXHXHXHXHXHXHXHXHXHXHXHXHXHXHXHXHXHXHXHXHXHXHXHXHXHXHXHXHXHXHXHXHXHXHXHXHXHXHXHXHXHXHXHXHXHXHXHXHXHXHXHXHXHXHXHX",
"HXHXHXHXHXHXHXHXHXHXHXHXHXHXHXHXHXHXHXHXHXHXHXHXHXHXHXHXHXHXHXHX7XHXHXHXHXHXHXHXHXHXHXHXHXHXHXHXHXHXHXHXHXHXHXHXHXHXHXHXHXHXHXHX",
"HXHXHXHXHXHXHXHXHXHXHXHXHXHXHXHXHXHXHXHXHXHXHXHX6.5 c r x r t c c c c c t N.HXHXHXHXHXHXHXHXHXHXHXHXHXHXHXHXHXHXHXHXHXHXHXHXHXHX",
"HXHXHXHXHXHXHXHXHXHXHXHXHXHXHXHXHXHXHXHXAXf 3 GX9.HXr t x c r c t v x v c n c b s.HXHXHXHXHXHXHXHXHXHXHXHXHXHXHXHXHXHXHXHXHXHXHX",
"HXHXHXHXHXHXHXHXHXHXHXHXHXHXHXHXHXHXHX@ 2 r x HX5 x |.U.x r r t r x c c g c b g g g ] HXHXHXHXHXHXHXHXHXHXHXHXHXHXHXHXHXHXHXHXHX",
"HXHXHXHXHXHXHXHXHXHXHXHXHXHXHXHXHXJ 3 1 5 w 1 y.q r q 3 HXW t 1 v b e c c b t t ).HXHXHXcXHXHXHXHXHXHXHXHXHXHXHXHXHXHXHXHXHXHXHX",
"HXHXHXHXHXHXHXHXHXHXHXHXHXHXHXaX5 1 5 1 5 5 >.@ r r r r r E HXHXHXR }.HXHXHXZ.S t B n z HXg HXHXHXHXHXHXHXHXHXHXHXHXHXHXHXHXHXHX",
"HXHXHXHXHXHXHXHXHXHXHXHXHXHXr.3 1 1 5 r 5 5 e.x x r r x r x HXHXHXY.y c t g g n n n j '.d.g V  XHXHXHXHXHXHXHXHXHXHXHXHXHXHXHXHX",
"HXHXHXHXHXHXHXHXHXHXHXHXHXD 3 4 1 3 5 5 5 5 HXr 0 r r r r HX@.HX/.b l HXHX).q n n B g HXg '.B m S.HXHXHXHXHXHXHXHXHXeXoXHXHXHXHX",
"HXHXHXHXHXHXHXHXHXHXHXHX<XHXQ 3 3 1 5 5 5 5 6.5 r 0 r 9.dXr t /.r c c c v t s.iXHX$.HXHXg HXB M M m.HXHXHXHXHXZX3.D.HXHXHXHXHXHX",
"HXHXHXHXHXHXHXHXHXHXHXF HX1 H HX, 2 5 5 q @ >.x 5 r HXk x x x p.r t c c b c t n c k HXHX*.[.M M V M OXHXHXK.B _ HXHXHXHXHXHXHXHX",
"HXHXHXHXHXHXHXHXHXHX~.< HX3 3 5 I.0X1 1 5 0.1 5 a.yXx r x r r k q t c c c c n v t HX&X%XB m ..V n V m ' ) M HXHXHXHXHXHXHXHXHXHX",
"HXHXHXHXHXHXHXHXHXHX3 , u.5 3 6 1 3 HXP.P.HX@ HXs r x r x x e w k t c c c c b s.R.B v m j B HXV M M M ) XXHXHXHXHXHXHXHXHXHXHXHX",
"HXHXHXHXHXHXHXHXHXO = D O 3 3 3 3 3 1 G HXHXdXr 5 r r r x y r r %.t c c t t HXd n n j B j B HXm M V s.HXHXHXHXHXHXHXHXHX^ HXHXHX",
"HXHXHXHXHXHXHXHXb.1 , g., 1 3 5 1 0 @ F HXHXHXHXd r r r x x r r _.c t c K..Xb n n n B n B n N.g g HXHXHXHXHXHXHXHXHX`./ HXHXHXHX",
"HXHXHXHXHXHXHXHX, < , HX, 3 3 2 2 0 4X7.#._.r r s HXHXd r t x c HXx t HXp g n n n B n B M n g NXHXHXHXHXHXHXHXHXfXM _ HXHXHXHXHX",
"HXHXHXHXHXHXHX8.< ; 3 HX, 1 3 3 J HX, 5 5 5 5 r r r x Y HXHXf Y HX9X8Xc c c b n v B v n B +XHXHXHXHXHXHXHXHXHXM ) ,.HXHXHXHXHXHX",
"HXHXHXHXHXHXHX; ; 3 ; h.1 < 1 HX! 1 1 5 5 5 5 r x w r x x 5 U HXHXHXr t b b b B B v B { HXHXHXHXHXHXHXHXHX1.) / B.HXHXHXHXHXHXHX",
"HXHXHXHXHXHXT.< ; , . I 3 b.3X1 0 1 q 3 5 1 8 9.W.HXHXdX/.} r }.HXHXHXJ.e v c g g t HXHXHXHXHXHXHXHXHX@XFX-.V $XHXHXHXHXHXHXHXHX",
"HXHXHXHXHXHXo < ; $ AX5.HX= @ f x.HXSXHXHXl.f 1 r 0 r r x t r t HXHXc t 9.HX*.v uXHXHXHXHXHXHXHXHXzXg ( &./ M 2.HXHXHXHXHXHXHXHX",
"HXHXHXHXHXHX< < + HXHXHXHX4Xu.O @ 3 6 5 5 5 r r 0 r r x x x t x HXf.e c t v U.HXHXHXHXHXHXHXHXHXHXV M HXM ) M / HXHXHXHXHXHXHXHX",
"HXHXHXHXHXHX; < < t.HXHX3 , , 4 5 = x.Y.HXHXHX].@ x r r x r t x HXb HXn Y HXHXHXHXHXHXHXHXHXN.M w.g e S.V / ) ) HXHXHXHXHXHXHXHX",
"HXHXHXHXHXh.; = ; HX= 3 < 3 5 9 HXHXHXHXHXHXHXHXHXHXk.r t r r c HXc %.HXHXHXHXHXHXHXHXHXHXHXO.g t wXHXV V ) V ) HXHXHXHXHXHXHXHX",
"HXHXHXHXHX+ O < 2 4.3 , 3 3 hXHXHXHXHXHXHXHXHXHXHXHXHXHXw t r t HX{.HXHXHXHXHXHXHXHXHXb B n m HXHXHXHXV V / ) ) A.HXHXHXHXHXHXHX",
"HXHXHXHXHX= = , HX; 3 , @ HXHXHXHX5Xe B V V V j #XHXHXHXHXR x f.HXHXHXHXHXHXHXHXHXA n g B n B B HXHX1XV M ) ) ) _ HXHXHXHXHXHXHX",
"HXHXHXHXHX= = 4.$ ; , , HXHXHXmXt n n j B M / V ) ) qXHXHXHXHXHXHXHXHXHXHXHXHXW.B v n B n B V j L.[ ^.| M V / ) / HXHXHXHXHXHXHX",
"HXHXHXHXHX; ; HX< 3 , HXHXHX:Xc g c HXHXsXB M M V ) ) &.HXHXHXHXHXHXHXHXHXtXc g v n n B n n M O.M.g :.uXM V ) ) / HXHXHXHXHXHXHX",
"HXHXHXHXHX= z.o , ; Q HXHXjXt x c c HXHXHXB g M M ) ) ) A.HXHXHXHXHXHXHXe HXb g b n n n B B t eXM g F.) HXM ) ) j HXHXHXHXHXHXHX",
"HXHXHXHXHXO !., , < HXHXHXr c c c t HXHXHXn B B M M M / ;.VXHXHXHXHXW c c C p.c n n n v B n HXM M B XXV V HXV / M HXHXHXHXHXHXHX",
"HXHXHXHXHX;X= = : O HXHX-Xr x x t t HXHXHXn B j B M M ) ) M HXHX=Xx b c t c HXn c g g B h HXB M M B HXM V / OX) M HXHXHXHXHXHXHX",
"HXHXHXHXHXh.< , = ;XHXHX, r w x r t HXHXHXc g B n j M N ) ) HXHXHXc c c c c e Z.v n n B  Xh M B j V HXV V M n.<.( HXHXHXHXHXHXHX",
"HXHXHXHXHXo - : , nXHXHXq 5 r x x r HXHXHXc n n n B j V V M HXHXHXc t v c c c HXg n v %.$.n j M n V HXV V M ) OXm.HXHXHXHXHXHXHX",
"HXHXHXHXHXi.; < , HXHXHX5 5 r x r r HXHXHXc c v n n n n V M %XHXHXc x x c c c c [.e h /.j B B B B V HXM ) / M J.HXHXHXHXHXHXHXHX",
"HXHXHXHXHXHX= , < HXHXHX1 r 5 r r r HXHXHXc b g c n B j B m $XHXHXr c c t c v N.HXHXHXg n n B M j V BXV V (.HXM HXHXHXHXHXHXHXHX",
"HXHXHXHXHXHX= , < HXHXHX5 5 5 5 5 r HXHXHXt t c c b g B j B :XHXHXr t c c v b HXHXHX6XO.S g g g B M.HXHXHXB ) / HXHXHXHXHXHXHXHX",
"HXHXHXHXHXHX  < = HXHXHX1 1 5 5 5 5 HXHXHXc t t c b g n n g bXHXHXc c c c c g d.HXHXm t h ..<.H.%XE.HXHX) V M  .HXHXHXHXHXHXHXHX",
"HXHXHXHXHXHXb., > 7.HXHX9 3 2 5 r 5 HXHXHXHXHXHXHXHXHXn B B HXHXHXc r c c v b g t s.r j B n n B M V ` VXV M ) xXHXHXHXHXHXHXHXHX",
"HXHXHXHXHXHXo - = HXHXHXHX@ 3 5 3 3 HXHXHXHXHXHXHXHXHXv b K.HXHXa.x c c c c g c B g ^.B n B B V B M V :.o./ M HXHXHXHXHXHXHXHXHX",
"HXHXHXHXHXX - I.HXHXHXHXHXD , 6 6 2 HXHXHXHXHXHXHXHXHXc t HXHXHXf.x v x c c b c n v HXB j B B m M M M V HXV @XHXHXHXHXHXHXHXHXHX",
"HXHXHXHX7 4.HXHXHXHXHXHXHXHX. 4 3 5 5 2 0 r r x x t r v HXHXHXE p.c t x v c v n v b f.g B B M B n M V V M S.HXHXHXHXHXHXHXHXHXHX",
"HXHXHX* HXHXHXHXHXHXHXHXHXHXHXX 3 3 2 3 5 5 r r r r r HXHXHXlXr +.c x c c c c b n n n V.v j n B M V m g HXHXHXHXHXHXHXHXHXHXHXHX",
"HXHXHXHXHXHXHXHXHXHXHXiX}.HXHXHXQ., 2 3 5 5 6 5 r 9.HXHXHXHXx r +.v c c c c v n v v g HXB B B j B { HXH.M HXHXHXHXHXHXHXHXHXHXHX",
"HXHXHXHXHXHXHXHXHXHX> = 1 4.HXHXHXHXHXI.L L l.HXHXHXHXHXvXx r 1 % j c c c c v g B b n j.J.B M W.HX] M V HXHXHXHXHXHXHXHXHXHXHXHX",
"HXHXHXHXHXHXHXHXP 3 < < 3 1 # HXHXHXHXHXHXHXHXHXHXHXHXa.r r r q k y c c c c g c b B B HXHXHXHXg n n M rXHXHXHXHXHXHXHXHXHXHXHXHX",
"HXHXHXHXHXHXv.< ; o K 8 , , , 3 J HXHXHXHXHXHXHXCXx.r r x r t q a t x t c b v n e ).HXHXHX5Xj B m M A.HXHXHXHXHXHXHXHXHXHXHXHXHX",
"HXHXHXHXgX% 4.DXHXHXHXHXX , 3 3 5 5 3 @ T.HXU 5 0 r r r r r c |.:Xx b r R HXHXHXX.e b e kXB B M j <.HXHXHXHXHXHXHXHXHXHXHXHXHXHX",
"HXHXHXHXHXHXHXHXHXHXHXHXHX# 1 3 3 2 3 @ HXHXHXHXHXHXHX}.P.q.].HXHXMXHXG.t v c c v n j B HXB B V *.HXHXHXHXHXHXHXHXHXHXHXHXHXHXHX",
"HXHXHXHXHXHXHXHXHXHXHXHXHXHXI 3 3 3 5 5 HXHXHX0 0 5 5 r q r P.HXHX9XHX Xy c c v v B g n HXB V '.HXHXHXHXHXHXHXHXHXHXHXHXHXHXHXHX",
"HXHXHXHXHXHXHXHXHXHXHXHXHXHXHX].0 3 1 5 6 u l.s r r r 5 x r HXN.G.t c t X.HXHX Xh g v B HXn lXHXHXHXHXHXHXHXHXHXHXHXHXHXHXHXHXHX",
"HXHXHXHXHXHXHXHXHXHXHXHXHXHXHXHXHX@ 1 3 0 6 q HX1 r r r r kXq r x r c c t c v t | W.HX*XE.HXHXHXHXHXHXHXHXHXHXHXHXHXHXHXHXHXHXHX",
"HXHXHXHXHXHXHXHXHXHXHXHXHXHXHXHXHXHXHX1 3 2 r 5 HX0 r r 0X1 r r x c x c c c b c n b g HXHXHXHXHXHXHXHXHXHXHXHXHXHXHXHXHXHXHXHXHX",
"HXHXHXHXHXHXHXHXHXHXHXHXHXHXHXHXHXHXHXHXHX8 3 2 2 k.r P.p x r c v c c c t c v B W HXHXHXHXHXHXHXHXHXHXHXHXHXHXHXHXHXHXHXHXHXHXHX",
"HXHXHXHXHXHXHXHXHXHXHXHXHXHXHXHXHXHXHXHXHXHXHX].u k.T.T r r r r x r x c c X.HXHXHXHXHXHXHXHXHXHXHXHXHXHXHXHXHXHXHXHXHXHXHXHXHXHX",
"HXHXHXHXHXHXHXHXHXHXHXHXHXHXHXHXHXHXHXHXHXHXHXHXHXHXHXHXHX6X.X3X,XHXmXHXHXHXHXHXHXHXHXHXHXHXHXHXHXHXHXHXHXHXHXHXHXHXHXHXHXHXHXHX",
"HXHXHXHXHXHXHXHXHXHXHXHXHXHXHXHXHXHXHXHXHXHXHXHXHXHXHXHXHXHXHXHXHXHXHXHXHXHXHXHXHXHXHXHXHXHXHXHXHXHXHXHXHXHXHXHXHXHXHXHXHXHXHXHX",
"HXHXHXHXHXHXHXHXHXHXHXHXHXHXHXHXHXHXHXHXHXHXHXHXHXHXHXHXHXHXHXHXHXHXHXHXHXHXHXHXHXHXHXHXHXHXHXHXHXHXHXHXHXHXHXHXHXHXHXHXHXHXHXHX",
"HXHXHXHXHXHXHXHXHXHXHXHXHXHXHXHXHXHXHXHXHXHXHXHXHXHXHXHXHXHXHXHXHXHXHXHXHXHXHXHXHXHXHXHXHXHXHXHXHXHXHXHXHXHXHXHXHXHXHXHXHXHXHXHX",
"HXHXHXHXHXHXHXHXHXHXHXHXHXHXHXHXHXHXHXHXHXHXHXHXHXHXHXHXHXHXHXHXHXHXHXHXHXHXHXHXHXHXHXHXHXHXHXHXHXHXHXHXHXHXHXHXHXHXHXHXHXHXHXHX",
"HXHXHXHXHXHXHXHXHXHXHXHXHXHXHXHXHXHXHXHXHXHXHXHXHXHXHXHXHXHXHXHXHXHXHXHXHXHXHXHXHXHXHXHXHXHXHXHXHXHXHXHXHXHXHXHXHXHXHXHXHXHXHXHX"
};
